<svg version="1.0" xmlns="http://www.w3.org/2000/svg"
 width="780.000000pt" height="438.000000pt" viewBox="0 0 780.000000 438.000000"
 preserveAspectRatio="xMidYMid meet">

<g transform="translate(0.000000,438.000000) scale(0.100000,-0.100000)"
fill="#FFFFFF" stroke="none">
<path d="M0 2365 c0 -1108 3 -2015 8 -2015 4 0 27 16 52 36 25 20 75 54 112
75 77 45 100 72 158 184 53 102 65 115 180 190 52 34 131 95 175 135 44 40
116 98 160 129 73 52 300 191 312 191 3 0 32 13 66 28 65 30 143 50 133 34 -5
-9 39 -54 46 -47 7 7 60 -62 116 -150 234 -366 244 -383 274 -523 18 -88 29
-309 28 -599 l0 -33 1354 0 c1074 0 1355 3 1359 13 3 10 9 10 26 0 11 -7 37
-13 58 -13 l36 0 -23 25 c-13 13 -31 27 -42 31 -35 11 -17 23 69 48 49 14 109
32 134 40 42 12 49 12 75 -5 16 -10 53 -45 82 -78 l53 -61 915 0 c802 0 914 2
914 15 0 9 9 15 24 15 13 0 31 3 40 6 12 4 16 0 16 -15 0 -16 6 -21 25 -21 18
0 23 4 19 15 -4 8 -11 15 -17 15 -7 0 -7 4 1 12 7 7 12 24 12 39 0 31 15 40
59 33 18 -3 31 -1 31 5 0 6 9 11 20 11 13 0 18 -5 14 -15 -4 -9 -11 -15 -18
-14 -31 4 -37 -1 -26 -22 9 -16 8 -24 -4 -38 -23 -26 -20 -41 10 -41 39 0 57
24 52 70 -3 39 11 58 33 44 11 -6 9 -83 -3 -90 -32 -20 23 -24 337 -24 l345 0
0 475 c0 479 0 481 -32 476 -5 0 -8 8 -8 19 0 26 -8 25 -31 -2 -12 -13 -19
-16 -19 -8 0 11 -3 11 -12 2 -17 -17 -38 -15 -38 4 0 8 -4 13 -9 9 -5 -3 -16
1 -24 9 -12 12 -96 46 -113 46 -4 0 4 -9 17 -20 13 -10 20 -19 16 -20 -5 0
-15 7 -23 15 -9 8 -24 15 -35 15 -10 0 -19 5 -19 10 0 6 -11 10 -25 10 -17 0
-25 6 -25 18 0 9 -4 13 -8 7 -12 -16 -32 -16 -32 0 0 17 -16 20 -25 5 -9 -15
-35 -12 -35 4 0 8 -4 17 -9 20 -5 4 -7 -2 -4 -12 3 -12 -2 -18 -17 -19 -11 -1
-18 2 -15 6 2 5 -2 15 -11 22 -12 10 -17 10 -23 0 -9 -15 -81 -5 -81 11 0 6
-9 8 -20 5 -11 -3 -20 -1 -20 5 0 6 -11 8 -25 6 -14 -3 -25 -1 -25 4 0 5 -6 8
-12 5 -7 -2 -12 -10 -10 -16 1 -6 -2 -11 -8 -11 -9 0 -14 13 -12 31 1 4 -8 5
-19 2 -16 -5 -18 -8 -7 -14 7 -5 9 -9 3 -9 -5 0 -17 5 -25 10 -13 8 -11 11 7
16 13 4 23 10 23 15 0 13 -38 11 -42 -1 -2 -6 -13 -12 -26 -13 -12 0 -22 -5
-22 -10 0 -5 7 -7 15 -3 8 3 15 1 15 -4 0 -13 -27 -13 -35 0 -3 5 -13 7 -23 4
-13 -5 -14 -4 -3 4 10 7 10 11 1 17 -7 4 -15 3 -19 -2 -3 -6 -23 -16 -44 -24
-21 -7 -46 -21 -57 -31 -11 -10 -25 -18 -32 -18 -7 0 -24 -13 -38 -29 -16 -20
-37 -32 -63 -37 -27 -4 -35 -9 -26 -14 10 -7 7 -13 -12 -29 -13 -11 -32 -20
-41 -21 -10 0 -18 -8 -18 -17 0 -10 -14 -26 -30 -35 -17 -10 -33 -25 -36 -35
-3 -10 -13 -33 -22 -50 -16 -32 -17 -33 -35 -14 -15 14 -17 23 -9 37 15 27 3
75 -25 105 -21 23 -22 29 -12 53 15 33 -2 120 -37 186 -13 25 -24 55 -24 66 0
29 -62 208 -106 305 -39 89 -140 264 -208 363 -56 81 -127 222 -145 286 -7 25
-19 60 -27 78 -8 18 -14 53 -14 77 0 35 -6 52 -29 77 -16 18 -43 59 -60 90
-17 32 -47 81 -67 109 -34 49 -35 52 -19 68 10 9 15 11 12 5 -5 -8 47 -13 176
-17 217 -7 320 -27 480 -92 13 -6 17 -2 17 15 0 15 5 20 17 18 25 -5 30 -38 6
-38 -19 0 112 -72 137 -75 8 -1 22 -4 30 -7 8 -3 41 -13 72 -23 60 -19 121
-52 200 -109 37 -27 60 -35 115 -41 37 -4 104 -15 148 -26 103 -24 320 -52
344 -44 24 7 35 34 17 41 -14 5 -11 38 4 59 4 6 11 31 14 57 7 47 27 75 46 63
15 -9 12 -31 -5 -45 -8 -7 -15 -20 -15 -30 0 -10 -7 -23 -15 -30 -11 -9 -12
-17 -5 -30 6 -10 7 -26 4 -34 -4 -10 -1 -16 10 -16 8 0 20 -10 27 -21 10 -19
16 -21 58 -14 25 4 56 8 69 7 12 0 22 4 22 9 0 5 5 9 11 9 5 0 7 -4 4 -10 -9
-15 21 -12 96 10 l69 21 0 659 c0 655 0 660 -20 660 -29 0 -89 -42 -92 -64 -5
-33 -24 -29 -42 9 -23 47 -57 47 -100 1 -41 -45 -72 -56 -132 -48 -38 6 -50
12 -52 27 -9 45 -63 74 -76 40 -3 -9 -18 -15 -35 -15 -23 0 -30 5 -35 26 l-7
27 -15 -22 c-8 -11 -14 -31 -12 -44 3 -20 -1 -22 -54 -25 -36 -2 -68 2 -86 12
l-28 15 -14 -62 c-10 -46 -10 -62 -2 -65 23 -7 12 -28 -23 -45 -24 -12 -35
-23 -35 -39 0 -12 -7 -29 -15 -38 -13 -14 -14 -22 -4 -44 16 -34 -1 -57 -29
-39 -27 16 -61 -10 -42 -32 20 -24 -3 -43 -25 -21 -9 9 -21 13 -26 10 -16 -10
-32 -56 -34 -102 -2 -33 2 -45 16 -53 17 -8 18 -17 12 -57 -14 -94 -2 -137 49
-184 27 -23 39 -41 35 -51 -8 -20 -73 -33 -90 -18 -7 5 -26 9 -43 8 -21 -1
-29 2 -29 15 0 9 -13 30 -28 46 -28 29 -35 56 -16 67 5 4 18 0 28 -9 21 -19
31 -20 31 -3 0 14 -68 87 -81 87 -12 0 -11 37 1 45 18 11 11 35 -11 35 -18 0
-20 5 -17 38 3 34 1 37 -25 40 -17 2 -37 -4 -48 -14 -18 -16 -19 -16 -19 0 0
23 -49 41 -72 27 -26 -16 -42 -13 -56 9 -13 21 -42 28 -42 10 0 -18 -35 -11
-48 10 -10 17 -16 18 -39 9 -16 -6 -39 -13 -53 -16 -13 -2 -39 -13 -56 -24
-17 -10 -46 -19 -63 -19 -24 0 -34 -6 -41 -25 -11 -30 -58 -45 -74 -23 -6 8
-21 20 -33 27 -14 7 -23 21 -23 36 0 25 -33 55 -60 55 -8 0 -28 11 -44 25 -16
14 -24 25 -18 25 7 0 12 15 12 35 0 38 -20 55 -66 55 -16 0 -41 13 -66 36
l-39 35 -26 -26 c-51 -51 -115 -46 -242 16 -47 23 -94 46 -103 51 -27 12 -48
10 -54 -7 -4 -8 -12 -15 -19 -15 -8 0 -24 -18 -36 -40 -21 -36 -30 -44 -51
-41 -4 0 -10 -8 -13 -19 -3 -10 -22 -29 -41 -40 -18 -12 -34 -25 -34 -30 0 -4
-11 -11 -25 -14 -14 -4 -25 -11 -25 -16 0 -6 -6 -10 -12 -10 -38 -1 -75 -68
-48 -85 6 -3 10 -3 10 2 0 13 68 55 79 49 6 -4 13 -23 17 -42 5 -29 2 -40 -17
-60 -23 -25 -23 -26 -5 -39 10 -8 24 -12 30 -9 6 3 0 -3 -13 -13 -59 -43 -64
-50 -56 -69 4 -10 9 -64 12 -119 4 -88 7 -102 26 -117 19 -15 20 -18 5 -18
-16 0 -18 -12 -18 -103 0 -91 3 -106 20 -122 33 -30 151 -215 186 -292 18 -40
32 -73 29 -73 -2 0 5 -25 16 -57 10 -31 19 -63 19 -72 0 -9 9 -22 21 -29 19
-12 20 -12 14 10 -8 23 -7 23 14 4 11 -11 21 -21 21 -23 0 -1 -13 -9 -30 -15
-29 -13 -29 -14 -16 -40 9 -18 11 -30 5 -34 -6 -3 3 -18 20 -33 l30 -27 -4
-225 c-5 -275 -6 -283 -60 -444 -13 -38 -27 -87 -30 -108 -5 -26 -16 -42 -36
-54 -17 -10 -29 -27 -31 -42 -2 -16 -12 -30 -25 -36 -13 -5 -23 -16 -23 -23 0
-7 -11 -17 -25 -22 -14 -5 -25 -17 -25 -25 0 -9 -16 -31 -35 -49 -19 -19 -35
-43 -35 -55 0 -14 -6 -21 -20 -21 -10 0 -24 -9 -30 -20 -8 -16 -6 -24 11 -41
l21 -21 -24 7 c-39 12 -42 11 -46 -13 -2 -16 -14 -27 -34 -34 -26 -9 -29 -14
-24 -39 4 -20 1 -31 -10 -37 -9 -5 -19 -24 -23 -43 -6 -32 -12 -36 -76 -57
-39 -13 -98 -35 -131 -48 -40 -16 -70 -23 -87 -19 -28 7 -97 -20 -97 -39 0 -6
-14 -26 -31 -44 -28 -31 -36 -34 -122 -43 -51 -5 -106 -11 -124 -13 -29 -4
-34 -1 -50 32 -12 25 -24 36 -36 34 -11 -2 -21 6 -27 23 -8 21 -14 24 -35 19
-21 -5 -27 -2 -32 15 -6 24 -14 26 -30 10 -13 -13 -53 -3 -53 13 0 7 -5 6 -14
-1 -11 -10 -20 -10 -36 -1 -12 6 -28 9 -36 6 -7 -3 -20 4 -28 15 -9 13 -16 16
-21 10 -10 -18 -32 -13 -38 9 -4 15 -14 20 -40 20 -22 0 -37 -6 -41 -15 -8
-21 -24 -19 -31 5 -7 21 -39 27 -50 10 -10 -17 -25 -11 -25 9 0 15 13 24 53
36 28 10 75 28 103 40 56 26 124 46 124 38 0 -3 6 0 14 6 7 6 20 9 28 6 8 -3
26 3 39 14 17 14 29 17 42 10 22 -12 78 34 252 206 107 106 149 152 217 238
10 12 29 36 43 53 14 18 25 37 25 43 0 6 8 19 18 29 9 10 22 26 27 34 13 19
68 94 98 132 36 46 49 92 25 83 -7 -2 -12 -11 -10 -19 1 -11 -7 -14 -33 -12
-26 2 -38 -1 -42 -13 -8 -20 -40 -53 -50 -52 -20 3 -30 -3 -47 -31 -9 -17 -21
-28 -25 -26 -4 3 -14 -6 -21 -19 -7 -13 -17 -22 -21 -19 -4 2 -16 -7 -25 -21
-9 -14 -23 -25 -31 -25 -15 0 -48 -28 -48 -40 0 -8 -84 -80 -92 -80 -3 0 6 11
22 26 43 39 22 39 -34 0 -52 -36 -96 -56 -185 -81 -46 -13 -212 -13 -306 0
-19 3 -96 12 -170 20 -240 27 -400 73 -408 118 -6 32 60 49 218 57 103 5 164
13 210 28 78 25 239 80 260 89 8 4 20 7 25 8 42 5 85 18 85 25 0 6 8 10 18 10
24 0 66 47 49 54 -9 5 -9 7 1 12 19 9 14 32 -9 39 -12 4 -18 12 -15 21 8 20
-10 26 -83 30 -36 1 -109 9 -161 17 -52 9 -147 21 -210 27 -212 22 -411 85
-536 171 -144 100 -194 164 -213 276 -22 125 -21 124 -38 68 -20 -66 -28 -73
-47 -37 -17 32 -22 168 -10 231 8 38 57 91 85 91 12 0 58 38 113 92 103 105
146 141 154 133 3 -3 1 -31 -5 -62 -13 -72 -4 -104 33 -122 16 -7 49 -30 74
-51 25 -20 56 -44 70 -53 36 -23 265 -77 327 -77 73 0 149 31 218 91 72 60
123 88 251 134 140 50 165 78 95 109 -69 32 -139 20 -235 -37 -91 -53 -296
-55 -408 -4 -48 22 -136 103 -124 114 2 2 -7 16 -20 30 -13 14 -24 31 -24 37
0 7 -5 17 -12 24 -9 9 -15 8 -28 -3 -8 -8 -33 -15 -54 -17 -38 -2 -63 15 -80
55 -3 8 -10 5 -23 -9 -38 -43 -132 -75 -157 -55 -8 7 -18 11 -22 10 -18 -5
-124 14 -124 21 0 5 -10 6 -22 2 -14 -3 -19 -2 -14 6 4 7 1 12 -9 12 -40 0
-171 82 -159 101 2 4 -8 4 -23 0 -37 -11 -53 -4 -54 22 0 12 -3 16 -6 10 -7
-18 -20 -16 -27 3 -3 8 -2 12 4 9 6 -4 10 8 10 29 0 74 24 139 133 366 30 63
58 126 62 138 8 26 -11 49 -55 68 -14 7 -55 34 -91 60 -36 27 -92 67 -124 89
-33 22 -62 43 -65 47 -23 30 -106 31 -176 2 -65 -27 -162 -10 -178 31 -16 42
3 178 33 234 6 11 11 29 11 40 0 12 5 21 10 21 6 0 10 5 10 10 0 28 82 90 118
90 35 0 106 -73 180 -184 77 -116 182 -227 264 -280 82 -52 104 -54 156 -16
23 18 42 37 42 43 -1 17 -30 54 -30 38 0 -11 -3 -11 -15 -1 -19 16 -20 50 -1
50 8 0 18 -4 21 -10 11 -17 25 -11 25 11 0 12 -18 39 -40 61 -44 45 -47 54
-25 85 13 18 13 22 0 33 -29 24 -50 8 -55 -43 -4 -39 -10 -52 -32 -65 -22 -13
-29 -13 -42 -3 -9 8 -16 21 -16 31 0 10 -10 24 -22 32 -34 23 -17 48 32 48 45
0 47 4 24 49 -18 36 -44 53 -64 41 -11 -7 -12 -11 0 -25 10 -12 10 -19 2 -27
-19 -19 -33 4 -37 62 -2 29 -8 57 -13 62 -12 12 -58 -16 -73 -43 -13 -26 -29
-24 -29 4 0 26 -72 107 -95 107 -9 0 -23 16 -31 35 -17 41 -22 42 -58 14 l-26
-20 0 25 c0 14 5 26 10 26 6 0 10 5 10 10 0 6 -11 10 -25 10 -14 0 -39 10 -56
22 -17 13 -45 22 -69 23 -21 0 -42 4 -46 8 -4 4 -13 7 -20 7 -24 0 -88 51
-100 80 -19 43 -50 70 -84 70 -16 0 -30 -4 -30 -10 0 -5 -15 -10 -34 -10 -19
0 -41 -3 -50 -6 -22 -8 -76 -90 -76 -115 0 -23 -17 -25 -40 -4 -10 9 -40 18
-68 22 -49 5 -51 5 -45 -16 6 -22 -23 -55 -39 -45 -5 3 -8 0 -8 -5 0 -6 4 -11
9 -11 5 0 16 -11 24 -23 15 -23 15 -24 -9 -19 -13 2 -24 8 -24 13 0 5 -11 14
-25 19 -21 8 -24 13 -15 30 5 11 14 29 20 40 8 15 4 33 -15 74 l-25 55 -37
-25 c-34 -23 -37 -23 -55 -8 -10 10 -18 23 -18 31 0 16 -115 19 -125 3 -3 -5
-14 -10 -23 -10 -15 0 -15 2 -2 10 10 6 -180 10 -547 10 l-563 -1 0 -2014z
m1345 1905 c4 -6 -7 -10 -24 -10 -17 0 -31 5 -31 10 0 6 11 10 24 10 14 0 28
-4 31 -10z m-1033 -75 c-5 -41 -22 -37 -22 6 0 17 5 29 13 29 9 0 12 -11 9
-35z m1611 -26 c-5 -4 -17 -9 -28 -11 -17 -2 -20 3 -21 35 l-1 38 29 -27 c15
-16 25 -31 21 -35z m-1495 31 c-7 -10 -14 -18 -15 -16 -6 6 9 36 18 36 5 0 4
-9 -3 -20z m126 -26 c19 -7 20 -24 4 -59 -11 -25 -41 -34 -53 -15 -3 5 -1 18
4 29 8 14 8 21 -2 24 -9 4 -8 8 3 16 18 12 23 13 44 5z m-164 -34 c0 -34 -16
-39 -36 -12 -21 26 -16 42 11 42 21 0 25 -5 25 -30z m1115 -30 c-3 -5 -1 -10
4 -10 23 0 10 -18 -16 -23 -38 -7 -40 -1 -12 22 27 23 33 26 24 11z m-1021
-101 c-3 -5 -14 -9 -26 -9 -17 0 -18 3 -8 14 12 15 44 10 34 -5z m900 -5 c9
-3 16 -13 16 -21 0 -21 -54 -13 -58 10 -4 18 13 22 42 11z m-101 -89 c1 -5 -6
-11 -15 -13 -11 -2 -18 3 -18 13 0 17 30 18 33 0z m-867 -50 c16 -13 17 -16 4
-25 -17 -11 -76 -12 -103 -1 -17 6 -17 8 5 18 53 26 68 27 94 8z m84 -145 c0
-5 -4 -10 -10 -10 -5 0 -10 5 -10 10 0 6 5 10 10 10 6 0 10 -4 10 -10z m270
-9 c0 -10 -69 -25 -77 -17 -3 2 -2 9 2 15 8 13 75 15 75 2z m-600 -15 c0 -2
-7 -6 -15 -10 -8 -3 -15 -1 -15 4 0 6 7 10 15 10 8 0 15 -2 15 -4z m500 -45
c0 -14 -88 -43 -110 -36 -27 8 -25 23 3 29 12 3 31 7 42 9 36 8 65 7 65 -2z
m6484 -197 c18 -46 -11 -61 -38 -19 -21 32 -20 35 8 35 13 0 27 -7 30 -16z
m267 -15 c5 -20 2 -25 -12 -26 -24 -2 -32 12 -24 38 9 26 27 20 36 -12z m69
-13 c0 -3 -4 -8 -10 -11 -5 -3 -10 -1 -10 4 0 6 5 11 10 11 6 0 10 -2 10 -4z
m-5962 -53 c2 -8 -6 -13 -20 -13 -13 0 -29 -5 -34 -10 -13 -13 -39 14 -29 30
9 15 77 8 83 -7z m-290 -15 c17 -17 15 -27 -5 -24 -10 2 -19 10 -21 19 -4 20
9 22 26 5z m-711 -64 c-3 -3 -12 -4 -19 -1 -8 3 -5 6 6 6 11 1 17 -2 13 -5z
m973 -19 c10 -12 10 -15 -3 -15 -8 0 -22 -3 -31 -6 -10 -4 -16 -1 -16 9 0 14
12 24 31 26 4 1 12 -6 19 -14z m4218 -18 c24 -25 29 -36 20 -45 -10 -10 -24
-4 -76 34 -6 4 9 44 17 44 4 0 21 -15 39 -33z m-346 2 c14 -8 23 -8 31 0 14
14 77 15 77 1 0 -5 -13 -16 -30 -25 -16 -9 -30 -20 -30 -26 0 -6 -7 -8 -17 -5
-10 4 -25 -2 -40 -16 -34 -31 -70 -16 -89 37 -7 22 -14 41 -14 43 0 7 95 0
112 -9z m-132 -7 c0 -5 -6 -17 -14 -28 -14 -18 -15 -18 -22 0 -4 11 -2 21 7
27 18 11 29 11 29 1z m-4356 -67 c-27 -20 -44 -19 -44 4 0 13 8 21 23 23 32 6
44 -9 21 -27z m4486 -40 c0 -16 -6 -25 -15 -25 -18 0 -20 21 -3 38 17 17 18
16 18 -13z m-4345 -64 c3 -5 1 -13 -5 -16 -15 -9 -71 5 -64 16 7 12 61 12 69
0z m6693 -28 c2 -8 -6 -13 -22 -13 -25 0 -33 10 -19 24 10 10 36 3 41 -11z
m-6138 -13 c0 -11 -7 -20 -15 -20 -17 0 -18 2 -9 24 9 23 24 20 24 -4z m-1090
-30 c0 -5 -8 -10 -17 -10 -15 0 -16 2 -3 10 19 12 20 12 20 0z m7156 -7 c19
-26 17 -35 -8 -31 -15 2 -24 11 -26 26 -4 26 15 29 34 5z m-5869 -18 c-1 -13
-7 -28 -11 -32 -5 -4 -7 2 -4 14 3 12 3 22 -1 21 -3 0 -12 0 -19 1 -21 2 -3
21 19 21 15 0 19 -6 16 -25z m3759 -223 c-4 -3 -14 2 -24 12 -16 18 -16 18 6
6 13 -6 21 -14 18 -18z m-452 -129 c8 -21 -11 -24 -33 -5 l-22 17 25 0 c14 0
28 -5 30 -12z m-2657 -50 c-3 -10 -5 -4 -5 12 0 17 2 24 5 18 2 -7 2 -21 0
-30z m2714 -3 c6 0 8 -4 4 -9 -3 -5 -1 -12 4 -15 5 -4 12 -2 16 4 3 5 12 10
18 10 8 0 8 -3 -1 -9 -9 -5 0 -15 32 -31 24 -14 43 -27 40 -31 -7 -12 -88 24
-109 48 -11 13 -26 23 -33 23 -7 0 -12 5 -12 11 0 6 7 8 16 5 9 -3 20 -6 25
-6z m263 -52 c11 -10 16 -18 12 -18 -17 0 -46 22 -57 43 -12 21 -11 21 7 7 10
-8 28 -23 38 -32z m2309 -22 c3 -7 0 -19 -6 -25 -14 -14 -38 5 -30 25 7 18 29
18 36 0z m-2448 -36 c3 -5 13 -10 22 -10 23 0 53 -29 46 -46 -3 -8 -11 -14
-18 -14 -16 0 -75 54 -75 69 0 14 17 14 25 1z m-2855 -194 c-12 -12 -13 33 -2
125 l7 64 3 -89 c2 -53 -1 -93 -8 -100z m3086 122 l29 -33 -32 29 c-31 28 -38
36 -30 36 2 0 16 -15 33 -32z m-37 -38 c14 -19 19 -30 11 -25 -8 5 -21 10 -29
12 -16 2 -31 22 -31 41 0 21 21 9 49 -28z m-69 20 c0 -5 -7 -10 -16 -10 -8 0
-12 5 -9 10 3 6 10 10 16 10 5 0 9 -4 9 -10z m2168 -46 c2 -11 -4 -27 -13 -34
-20 -17 -45 3 -45 37 0 21 4 24 28 21 18 -2 28 -9 30 -24z m-2118 -35 c0 -5
-11 3 -25 17 -14 14 -25 28 -25 31 0 4 11 -4 25 -17 14 -13 25 -27 25 -31z
m-94 4 c-8 -8 -36 5 -36 17 0 7 6 7 21 0 11 -7 18 -14 15 -17z m39 -13 c3 -5
1 -10 -4 -10 -6 0 -11 5 -11 10 0 6 2 10 4 10 3 0 8 -4 11 -10z m-2962 -173
c2 -54 1 -97 -3 -97 -5 0 -7 -29 -7 -65 1 -35 -2 -60 -6 -56 -5 5 -10 54 -13
110 -2 57 -6 106 -9 110 -2 5 -2 19 2 32 3 13 8 44 11 69 4 40 6 42 12 19 4
-14 10 -69 13 -122z m3108 107 c15 -15 25 -33 22 -41 -3 -8 0 -13 7 -11 7 2
14 -2 17 -9 6 -16 -67 -5 -87 13 -12 12 -12 16 4 27 13 10 15 16 8 21 -13 8
-16 26 -5 26 4 0 19 -12 34 -26z m-3091 -21 c0 -32 -5 -28 -14 10 -4 19 -3 26
4 22 5 -3 10 -18 10 -32z m3234 -27 c9 3 16 1 16 -6 0 -6 -4 -8 -10 -5 -6 3
-7 -1 -4 -9 3 -9 11 -13 18 -9 6 4 5 -1 -2 -10 -8 -9 -11 -21 -7 -27 10 -17
-15 -11 -40 9 -19 14 -21 21 -12 31 9 10 9 14 0 17 -7 3 -13 9 -13 14 0 6 8 6
19 -1 11 -5 27 -7 35 -4z m81 -6 c3 -5 1 -10 -4 -10 -6 0 -11 5 -11 10 0 6 2
10 4 10 3 0 8 -4 11 -10z m-3140 -66 c13 -13 15 -32 12 -98 -2 -44 -2 -60 0
-33 2 26 8 47 14 47 11 0 11 -11 3 -73 -4 -26 -10 -44 -15 -41 -10 6 -9 -41 4
-134 10 -72 -3 -175 -24 -188 -9 -5 -49 71 -49 92 0 6 -7 17 -15 24 -8 7 -14
22 -14 34 1 11 -10 53 -25 91 -52 140 -69 235 -41 235 8 0 15 6 15 14 0 8 9
18 20 21 11 3 20 11 20 16 0 16 77 10 95 -7z m2865 -4 c0 -5 -2 -10 -4 -10 -3
0 -8 5 -11 10 -3 6 -1 10 4 10 6 0 11 -4 11 -10z m192 -10 c14 0 18 -8 18 -36
0 -30 -2 -33 -14 -22 -18 18 -52 87 -35 71 7 -7 21 -13 31 -13z m-232 0 c0 -5
-5 -10 -11 -10 -5 0 -7 5 -4 10 3 6 8 10 11 10 2 0 4 -4 4 -10z m417 -22 c13
-12 23 -26 23 -31 0 -10 -59 34 -59 46 -1 13 12 8 36 -15z m-267 -8 c0 -11 -4
-20 -8 -20 -5 0 -17 9 -27 20 -18 20 -17 20 8 20 20 0 27 -5 27 -20z m-3515
-9 c-3 -6 -11 -11 -17 -11 -6 0 -6 6 2 15 14 17 26 13 15 -4z m163 -21 c-7
-11 -17 -20 -22 -20 -5 0 -1 9 9 20 10 11 20 20 22 20 2 0 -2 -9 -9 -20z
m3537 -20 c3 -5 1 -10 -4 -10 -6 0 -11 5 -11 10 0 6 2 10 4 10 3 0 8 -4 11
-10z m110 -1 c11 -17 -1 -21 -15 -4 -8 9 -8 15 -2 15 6 0 14 -5 17 -11z m-365
-3 c0 -3 -4 -8 -10 -11 -5 -3 -10 -1 -10 4 0 6 5 11 10 11 6 0 10 -2 10 -4z
m138 -24 c13 -8 19 -19 15 -23 -11 -10 -83 13 -83 27 0 26 22 25 68 -4z
m-3448 -2 c0 -5 -5 -10 -11 -10 -5 0 -7 5 -4 10 3 6 8 10 11 10 2 0 4 -4 4
-10z m-161 -44 c-15 -13 -49 -25 -49 -17 0 5 8 12 18 14 24 6 36 8 31 3z m381
-91 c0 -8 -2 -15 -4 -15 -2 0 -6 7 -10 15 -3 8 -1 15 4 15 6 0 10 -7 10 -15z
m2910 -15 c0 -5 -5 -10 -11 -10 -5 0 -7 5 -4 10 3 6 8 10 11 10 2 0 4 -4 4
-10z m-5 -40 c3 -5 1 -10 -4 -10 -6 0 -11 5 -11 10 0 6 2 10 4 10 3 0 8 -4 11
-10z m-3441 -55 c-4 -8 -10 -12 -15 -9 -11 6 -2 24 11 24 5 0 7 -7 4 -15z
m-46 -52 c3 -41 1 -45 -12 -34 -14 12 -14 47 1 74 7 12 8 9 11 -40z m3932 2
c7 -9 8 -15 2 -15 -5 0 -12 7 -16 15 -3 8 -4 15 -2 15 2 0 9 -7 16 -15z
m-4373 -51 c-3 -3 -12 -4 -19 -1 -8 3 -5 6 6 6 11 1 17 -2 13 -5z m33 -11 c0
-5 16 -9 36 -10 33 -2 71 -30 57 -43 -3 -3 -8 1 -10 8 -6 17 -30 15 -37 -4 -3
-8 -11 -12 -17 -8 -8 4 -7 9 2 15 10 6 6 9 -12 9 -18 0 -28 6 -32 20 -3 11 -1
20 4 20 5 0 9 -3 9 -7z m4377 1 c-3 -3 -12 -4 -19 -1 -8 3 -5 6 6 6 11 1 17
-2 13 -5z m-4141 -53 c4 -14 6 -37 5 -51 -1 -20 0 -22 8 -10 10 14 12 13 15
-10 0 -5 16 -21 34 -36 17 -15 32 -31 32 -35 0 -18 -28 -8 -43 14 -9 12 -31
39 -51 60 -19 20 -32 37 -28 37 4 0 -19 14 -51 30 l-58 29 64 -1 c62 0 66 -2
73 -27z m3974 8 c0 -6 -4 -7 -10 -4 -5 3 -10 11 -10 16 0 6 5 7 10 4 6 -3 10
-11 10 -16z m-3835 1 c3 -5 1 -10 -4 -10 -6 0 -11 5 -11 10 0 6 2 10 4 10 3 0
8 -4 11 -10z m89 -56 c9 -24 7 -28 -9 -14 -17 14 -20 30 -6 30 5 0 12 -7 15
-16z m4032 -41 c-11 -12 -27 13 -20 32 7 17 8 17 17 -3 6 -12 7 -25 3 -29z
m-446 -3 c6 -11 8 -20 6 -20 -3 0 -10 9 -16 20 -6 11 -8 20 -6 20 3 0 10 -9
16 -20z m-3930 0 c0 -5 -2 -10 -4 -10 -3 0 -8 5 -11 10 -3 6 -1 10 4 10 6 0
11 -4 11 -10z m380 0 c0 -5 -2 -10 -4 -10 -3 0 -8 5 -11 10 -3 6 -1 10 4 10 6
0 11 -4 11 -10z m4205 -20 c8 -13 -5 -13 -25 0 -13 8 -13 10 2 10 9 0 20 -4
23 -10z m-4365 -71 c0 -5 -4 -9 -10 -9 -5 0 -10 7 -10 16 0 8 5 12 10 9 6 -3
10 -10 10 -16z m3781 -66 c13 -17 13 -17 -6 -3 -11 8 -22 16 -24 17 -2 2 0 3
6 3 6 0 17 -8 24 -17z m165 -159 c-18 -18 -22 -18 -29 0 -4 10 -1 13 9 9 7 -3
14 0 14 7 0 6 5 8 10 5 6 -4 5 -12 -4 -21z m1614 -119 c0 -1 -12 -2 -26 -2
-17 0 -22 2 -13 7 10 7 39 3 39 -5z m-1425 -6 c11 -17 -1 -21 -15 -4 -8 9 -8
15 -2 15 6 0 14 -5 17 -11z m1495 -3 c0 -2 -7 -6 -15 -10 -8 -3 -15 -1 -15 4
0 6 7 10 15 10 8 0 15 -2 15 -4z m240 -86 c0 -5 -5 -10 -11 -10 -5 0 -7 5 -4
10 3 6 8 10 11 10 2 0 4 -4 4 -10z m-3645 -100 c-3 -5 -14 -10 -23 -9 -14 0
-13 2 3 9 27 11 27 11 20 0z m3399 -185 c-4 -8 -10 -12 -15 -9 -14 8 -10 24 6
24 9 0 12 -6 9 -15z m5 -77 c1 -5 -8 -8 -19 -8 -22 0 -26 20 -8 38 10 10 14 9
20 -5 3 -10 7 -21 7 -25z m41 10 c0 -5 -4 -8 -10 -8 -5 0 -10 10 -10 23 0 18
2 19 10 7 5 -8 10 -18 10 -22z m-2005 2 c3 -5 1 -10 -4 -10 -6 0 -11 5 -11 10
0 6 2 10 4 10 3 0 8 -4 11 -10z m1977 -57 c10 -9 18 -11 18 -5 0 6 6 9 13 6
15 -5 19 -34 5 -34 -4 0 -8 -9 -8 -20 0 -11 -4 -20 -9 -20 -6 0 -16 -12 -23
-27 -7 -15 -17 -28 -23 -28 -14 0 -26 117 -13 133 14 16 18 15 40 -5z m-2462
-23 c0 -5 -2 -10 -4 -10 -3 0 -8 5 -11 10 -3 6 -1 10 4 10 6 0 11 -4 11 -10z
m2564 -19 c3 -5 -3 -20 -14 -34 -11 -14 -20 -30 -20 -35 0 -5 -7 -15 -15 -22
-12 -10 -19 -10 -28 -1 -8 8 -7 19 7 44 28 48 58 69 70 48z m-184 -41 c5 -32
-1 -40 -25 -40 -18 0 -28 7 -35 26 -13 34 -14 32 18 36 31 4 39 0 42 -22z
m269 -19 c19 -12 6 -41 -18 -41 -23 0 -35 15 -27 35 6 17 24 19 45 6z m-1484
-101 c-3 -5 -12 -10 -18 -10 -7 0 -6 4 3 10 19 12 23 12 15 0z m-915 -35 c17
-9 30 -19 30 -24 0 -13 -36 -20 -79 -14 -32 4 -38 9 -38 29 0 20 5 24 29 24
16 0 42 -7 58 -15z m2284 -78 c-8 -53 -11 -55 -25 -24 -15 34 -30 39 -64 21
-34 -18 -46 -18 -39 0 10 27 -15 26 -28 -1 -20 -42 -42 -43 -33 -2 4 19 9 37
11 41 3 4 45 7 94 7 l90 0 -6 -42z m-2369 -17 c3 -6 -1 -7 -9 -4 -18 7 -21 14
-7 14 6 0 13 -4 16 -10z m1132 -86 c-3 -3 -12 -4 -19 -1 -8 3 -5 6 6 6 11 1
17 -2 13 -5z"/>
<path d="M5640 2140 c0 -5 5 -10 10 -10 6 0 10 5 10 10 0 6 -4 10 -10 10 -5 0
-10 -4 -10 -10z"/>
<path d="M1547 4368 c-8 -25 15 -56 46 -62 35 -7 47 5 47 47 0 25 -3 27 -44
27 -27 0 -46 -5 -49 -12z"/>
<path d="M2390 4210 c0 -5 5 -10 10 -10 6 0 10 5 10 10 0 6 -4 10 -10 10 -5 0
-10 -4 -10 -10z"/>
<path d="M2516 4205 c-11 -8 -28 -15 -38 -15 -20 0 -25 -25 -7 -36 6 -3 9 -19
5 -35 -8 -42 2 -59 36 -59 27 0 28 1 14 16 -26 25 -20 44 12 41 15 -2 34 -7
40 -11 7 -4 28 -1 46 8 l34 16 -20 40 c-16 31 -25 39 -38 35 -10 -3 -21 -1
-25 5 -9 14 -37 12 -59 -5z m49 -64 c7 -12 -12 -24 -25 -16 -11 7 -4 25 10 25
5 0 11 -4 15 -9z"/>
<path d="M2552 4053 c2 -4 10 -22 17 -40 14 -35 39 -50 47 -28 9 24 -2 43 -37
60 -17 9 -29 13 -27 8z"/>
<path d="M2101 3931 c-15 -12 -21 -23 -16 -31 5 -9 4 -11 -3 -6 -16 10 -15 0
2 -27 8 -12 22 -64 31 -115 22 -113 33 -131 68 -115 14 7 33 24 43 38 16 24
15 31 -7 127 -33 141 -62 172 -118 129z"/>
<path d="M3072 3712 c6 -23 -7 -31 -15 -9 -4 10 -7 10 -18 0 -7 -7 -21 -13
-31 -13 -11 0 -29 -9 -40 -20 -17 -15 -24 -17 -30 -8 -7 12 -12 4 -9 -14 0 -3
-13 -11 -29 -17 -20 -6 -28 -15 -24 -24 3 -8 -2 -17 -10 -20 -9 -4 -16 -15
-16 -26 0 -18 -58 -129 -84 -161 -25 -30 -78 -163 -83 -205 -6 -57 8 -80 60
-103 23 -11 51 -29 62 -42 11 -12 30 -26 43 -31 19 -7 22 -15 19 -37 -4 -26
-2 -28 18 -24 23 4 25 32 2 32 -19 0 22 36 66 58 25 12 54 22 66 22 l22 0 -19
-27 c-11 -16 -23 -43 -27 -60 -6 -30 -4 -34 22 -44 15 -6 62 -11 103 -12 l75
-2 3 32 c2 17 -4 46 -13 63 -9 18 -14 34 -11 37 13 13 97 -31 130 -68 21 -22
45 -39 58 -39 l21 0 -19 23 c-11 12 -25 34 -32 50 -6 15 -19 27 -28 27 -9 0
-32 7 -52 16 -21 9 -52 22 -70 30 -18 8 -46 14 -62 14 -16 0 -40 4 -54 9 -16
7 -26 6 -28 0 -2 -5 -34 -10 -72 -10 -43 -1 -63 -4 -55 -10 11 -7 11 -9 -3 -9
-9 0 -20 5 -23 10 -4 7 -13 7 -26 0 -28 -16 -23 -4 14 31 58 56 110 74 217 74
78 0 102 -4 136 -22 52 -28 129 -104 154 -152 29 -58 44 -67 77 -46 38 25 79
71 94 106 10 26 9 36 -10 77 -20 42 -29 50 -80 70 -31 12 -66 22 -76 22 -11 0
-39 7 -63 15 -24 8 -73 16 -110 16 -95 2 -252 -12 -252 -22 0 -23 -82 -2 -102
26 -14 19 -9 92 7 105 9 7 13 20 10 28 -3 8 2 23 11 33 18 20 40 26 29 9 -3
-5 -1 -10 4 -10 6 0 11 8 11 18 0 20 54 75 85 86 19 7 19 8 3 17 -22 12 -24
31 -3 23 8 -4 15 -1 15 5 0 6 -4 11 -10 11 -5 0 -10 4 -10 10 0 12 49 -6 73
-27 21 -19 35 -10 17 12 -15 18 -12 18 28 4 17 -6 33 -17 36 -24 4 -10 19 -14
50 -13 l45 2 -24 32 c-14 18 -25 39 -25 48 0 8 -5 18 -12 22 -8 5 -9 1 -5 -12
7 -18 6 -18 -7 -1 -7 9 -21 17 -30 17 -9 0 -16 5 -16 11 0 6 -6 9 -14 6 -7 -3
-24 2 -36 10 -22 16 -23 15 -18 -5z"/>
<path d="M7335 3680 c-13 -15 -15 -24 -8 -31 19 -19 48 -6 48 20 0 32 -17 36
-40 11z"/>
<path d="M7427 3672 c-18 -20 -23 -52 -8 -52 5 0 15 -16 21 -36 8 -24 17 -34
28 -32 10 2 17 10 17 18 1 8 6 24 12 35 13 23 -6 68 -32 79 -22 8 -20 9 -38
-12z"/>
<path d="M3392 3673 c-6 -2 -10 -9 -7 -13 6 -9 -116 -4 -148 6 -18 6 -18 5 -2
-20 18 -27 54 -42 79 -33 22 9 27 -4 11 -27 -19 -27 -19 -47 0 -40 10 4 13 13
10 25 -7 22 -3 23 43 10 21 -6 32 -6 32 0 0 6 4 8 9 4 5 -3 22 6 36 21 14 14
25 27 23 28 -2 0 -17 11 -35 24 -18 12 -33 22 -35 21 -2 0 -9 -3 -16 -6z"/>
<path d="M5423 3658 c-22 -25 -43 -79 -43 -112 0 -18 6 -22 28 -20 38 2 38 2
17 18 -17 12 -16 14 18 25 25 9 37 19 37 31 0 10 6 20 12 22 9 3 8 12 -5 31
-21 33 -37 34 -64 5z"/>
<path d="M6948 3588 c-8 -21 2 -38 22 -38 25 0 35 17 20 35 -15 18 -36 19 -42
3z"/>
<path d="M3130 3570 c0 -6 -4 -8 -10 -5 -5 3 -10 4 -10 0 0 -11 53 -25 73 -19
16 5 17 8 6 14 -30 16 -59 21 -59 10z"/>
<path d="M3030 3515 c0 -9 9 -15 25 -15 16 0 25 6 25 15 0 9 -9 15 -25 15 -16
0 -25 -6 -25 -15z"/>
<path d="M3926 3482 c-10 -16 33 -42 55 -34 20 8 20 9 4 25 -17 18 -50 23 -59
9z"/>
<path d="M4017 3483 c-13 -12 -7 -32 20 -63 25 -30 29 -32 75 -26 44 6 49 5
48 -11 -4 -30 -2 -31 52 -19 57 12 78 36 78 88 0 30 -29 41 -68 24 -16 -7 -26
-6 -30 0 -4 6 -35 10 -70 10 -49 -1 -67 -5 -76 -18 -18 -24 -29 -23 -16 2 10
19 1 28 -13 13z m93 -32 c0 -5 -9 -19 -19 -32 -16 -19 -22 -22 -32 -11 -11 10
-10 12 3 12 9 0 20 9 23 20 6 20 25 28 25 11z m133 -21 c-3 -10 -11 -24 -18
-30 -14 -12 -48 -3 -39 11 3 5 10 6 16 3 6 -4 14 0 19 7 5 8 3 17 -4 21 -8 5
-4 8 10 8 16 0 20 -5 16 -20z m-103 6 c0 -2 -7 -9 -15 -16 -13 -11 -14 -10 -9
4 5 14 24 23 24 12z"/>
<path d="M4343 3438 c-18 -13 -33 -30 -33 -37 0 -9 14 -2 35 19 32 31 39 40
32 40 -1 0 -17 -10 -34 -22z"/>
<path d="M5660 3415 c0 -28 8 -31 35 -12 21 16 12 37 -16 37 -14 0 -19 -7 -19
-25z"/>
<path d="M4348 3405 c-20 -14 -42 -25 -47 -25 -6 0 -8 -7 -4 -15 5 -14 7 -14
23 0 9 8 20 15 24 15 4 0 20 10 36 22 36 26 53 16 20 -12 -13 -11 -18 -20 -13
-20 6 0 16 7 23 15 7 8 18 15 26 15 7 0 16 4 19 10 4 6 -1 7 -11 3 -10 -4 -15
-2 -11 3 13 21 -50 13 -85 -11z"/>
<path d="M4459 3373 c-10 -2 -19 -12 -22 -22 -4 -17 -2 -17 24 -4 16 8 29 19
29 24 0 9 -4 10 -31 2z"/>
<path d="M3896 3200 c-40 -46 -38 -110 5 -156 29 -31 62 -30 94 2 14 14 59 41
101 60 l75 35 -21 29 c-12 17 -27 30 -33 31 -157 13 -209 13 -221 -1z"/>
<path d="M4070 3004 c-52 -8 -96 -18 -98 -24 -2 -6 -7 -8 -12 -5 -8 5 -22 -64
-15 -76 6 -9 45 0 45 11 0 10 39 35 68 45 22 6 23 5 12 -15 -6 -11 -10 -33 -8
-47 3 -23 10 -28 56 -39 53 -11 138 -11 150 1 6 5 -7 61 -23 98 -17 39 94 13
162 -39 22 -17 40 -23 54 -19 16 5 18 9 8 21 -6 8 -17 13 -23 12 -7 -2 -23 9
-37 23 -18 20 -38 28 -78 33 -30 4 -60 11 -66 16 -20 16 -95 18 -195 4z m120
-43 c0 -6 -4 -13 -10 -16 -5 -3 -10 1 -10 9 0 9 5 16 10 16 6 0 10 -4 10 -9z"/>
<path d="M3980 2870 c0 -9 32 -30 46 -30 4 0 -1 9 -11 20 -19 21 -35 26 -35
10z"/>
<path d="M4141 2548 c5 -18 9 -49 9 -68 0 -28 7 -40 33 -60 67 -53 198 -131
279 -166 46 -20 90 -42 98 -49 29 -24 45 -22 63 7 26 43 22 89 -13 136 -32 44
-77 69 -144 78 -125 17 -180 36 -241 87 -33 27 -61 53 -63 58 -2 5 -10 9 -17
9 -11 0 -12 -7 -4 -32z"/>
<path d="M2773 2220 c-26 -10 -30 -42 -9 -59 7 -6 21 -39 31 -74 27 -98 93
-222 148 -278 50 -51 160 -129 180 -129 7 0 4 5 -5 11 -10 5 -18 19 -18 29 0
11 -7 20 -15 20 -8 0 -15 4 -15 10 0 5 6 7 14 4 9 -4 16 6 20 31 4 20 14 39
22 42 17 6 92 -22 117 -45 18 -16 28 -11 40 22 1 4 21 3 42 -3 22 -6 49 -11
60 -11 18 1 17 2 -5 14 -14 8 -28 12 -32 10 -21 -13 -4 16 27 46 34 33 35 33
74 20 32 -10 40 -18 44 -44 2 -17 2 -38 -2 -46 -4 -8 -5 -30 -2 -49 5 -31 7
-33 20 -18 7 10 19 17 27 17 7 0 21 13 30 29 22 37 45 48 114 55 44 4 59 1 78
-14 12 -10 22 -23 22 -29 0 -20 19 -11 54 26 31 34 40 37 88 38 50 0 53 -2 56
-26 3 -22 7 -25 30 -21 15 3 33 11 41 19 17 18 56 13 56 -7 0 -9 -11 -16 -28
-18 -21 -3 -27 -8 -23 -19 3 -8 6 -19 6 -24 0 -6 8 -6 19 1 11 5 40 10 65 10
25 0 46 4 46 10 0 5 11 12 25 16 31 8 79 65 135 164 24 41 55 85 69 97 22 18
24 22 10 28 -30 11 -230 0 -389 -22 -286 -40 -364 -48 -470 -47 -100 0 -114 3
-285 58 -99 32 -226 75 -282 97 -56 21 -111 39 -122 39 -11 0 -26 7 -35 15
-16 17 -40 18 -73 5z m502 -330 c-6 -31 -14 -40 -39 -40 -19 0 -22 4 -18 28 3
22 9 28 32 30 24 2 28 -1 25 -18z"/>
<path d="M3924 1765 l-31 -13 10 -53 c14 -77 15 -79 32 -79 9 0 13 5 9 11 -4
6 -10 27 -15 47 -6 28 -3 40 14 63 25 35 21 41 -19 24z"/>
<path d="M3245 1714 c-12 -54 -12 -54 -47 -43 -65 18 -62 7 5 -16 101 -36 157
-42 95 -11 -16 8 -24 22 -26 46 -5 47 -19 60 -27 24z"/>
<path d="M3700 1691 c0 -10 7 -24 15 -31 13 -11 15 -9 13 19 -2 33 -28 44 -28
12z"/>
<path d="M3485 1680 c-6 -19 18 -90 30 -90 7 0 -7 94 -15 104 -5 4 -11 -2 -15
-14z"/>
<path d="M5277 1643 c-11 -10 -8 -43 3 -43 6 0 10 11 10 25 0 26 -2 29 -13 18z"/>
<path d="M3730 1620 c0 -24 26 -38 43 -21 8 8 5 11 -12 11 -12 0 -20 4 -16 9
3 5 1 12 -5 16 -5 3 -10 -3 -10 -15z"/>
<path d="M3418 1608 c9 -9 15 -9 24 0 9 9 7 12 -12 12 -19 0 -21 -3 -12 -12z"/>
<path d="M5255 1470 c3 -5 8 -10 11 -10 2 0 4 5 4 10 0 6 -5 10 -11 10 -5 0
-7 -4 -4 -10z"/>
<path d="M4710 1433 c-16 -35 -20 -63 -7 -63 5 0 7 9 4 20 -3 11 -1 20 4 20 5
0 9 7 9 16 0 8 5 12 10 9 6 -3 10 1 10 9 0 25 -16 19 -30 -11z"/>
<path d="M4660 1380 c-9 -6 -10 -10 -3 -10 6 0 15 5 18 10 8 12 4 12 -15 0z"/>
<path d="M4670 1334 c0 -8 5 -12 10 -9 6 4 8 11 5 16 -9 14 -15 11 -15 -7z"/>
<path d="M4611 1320 c-13 -11 -19 -20 -14 -20 6 0 18 9 28 20 23 25 17 25 -14
0z"/>
<path d="M7489 1138 c-8 -24 -8 -61 -1 -53 16 16 25 55 13 55 -6 0 -11 -1 -12
-2z"/>
<path d="M7530 1055 c-8 -9 -8 -15 -2 -15 6 0 13 6 15 13 4 9 8 8 16 -3 9 -13
11 -13 11 3 0 21 -23 22 -40 2z"/>
<path d="M7490 1044 c0 -8 5 -12 10 -9 6 3 10 10 10 16 0 5 -4 9 -10 9 -5 0
-10 -7 -10 -16z"/>
<path d="M7730 1050 c0 -5 4 -10 9 -10 6 0 13 5 16 10 3 6 -1 10 -9 10 -9 0
-16 -4 -16 -10z"/>
<path d="M7701 1028 c-1 -28 -17 -46 -29 -33 -4 4 -1 10 6 12 6 3 12 12 12 20
0 14 -2 14 -19 -1 -15 -14 -17 -21 -8 -39 l10 -22 43 20 c24 11 43 24 44 28 0
4 -9 3 -19 -3 -23 -12 -34 -13 -28 -2 3 4 1 16 -4 27 -7 18 -8 17 -8 -7z"/>
<path d="M7580 1030 c0 -5 4 -10 9 -10 6 0 13 5 16 10 3 6 -1 10 -9 10 -9 0
-16 -4 -16 -10z"/>
<path d="M7783 1022 c-8 -5 -8 -12 2 -25 12 -17 13 -16 11 7 0 15 -1 26 -1 26
0 0 -5 -4 -12 -8z"/>
<path d="M6570 981 c0 -6 5 -13 10 -16 6 -3 10 1 10 9 0 9 -4 16 -10 16 -5 0
-10 -4 -10 -9z"/>
</g>
</svg>